<svg xmlns="http://www.w3.org/2000/svg" xmlns:xlink="http://www.w3.org/1999/xlink" width="500" zoomAndPan="magnify" viewBox="0 0 375 374.999991" height="500" preserveAspectRatio="xMidYMid meet" version="1.0"><defs><g/><clipPath id="a2f934b156"><path d="M 57 197.921875 L 317 197.921875 L 317 269 L 57 269 Z M 57 197.921875 " clip-rule="nonzero"/></clipPath></defs><g fill="#000000" fill-opacity="1"><g transform="translate(16.730839, 193.220313)"><g><path d="M 9.453125 0.375 C 8.941406 0.375 8.148438 0.359375 7.078125 0.328125 C 6.015625 0.296875 5.070312 0.1875 4.25 0 C 3.75 -0.125 3.289062 -0.421875 2.875 -0.890625 C 2.46875 -1.367188 2.265625 -1.984375 2.265625 -2.734375 C 2.265625 -8.535156 2.28125 -13.546875 2.3125 -17.765625 C 2.34375 -21.984375 2.40625 -25.789062 2.5 -29.1875 C 2.59375 -32.59375 2.71875 -35.867188 2.875 -39.015625 C 3.039062 -42.171875 3.25 -45.515625 3.5 -49.046875 C 3.6875 -50.429688 4.378906 -51.21875 5.578125 -51.40625 C 6.773438 -51.65625 8.378906 -51.78125 10.390625 -51.78125 C 11.210938 -51.78125 12.09375 -51.75 13.03125 -51.6875 C 13.976562 -51.625 14.769531 -51.53125 15.40625 -51.40625 C 16.03125 -51.28125 16.546875 -51.023438 16.953125 -50.640625 C 17.367188 -50.265625 17.515625 -49.734375 17.390625 -49.046875 C 17.203125 -47.972656 17.007812 -47.007812 16.8125 -46.15625 C 16.625 -45.3125 16.53125 -44.539062 16.53125 -43.84375 C 16.53125 -42.769531 16.75 -42.15625 17.1875 -42 C 17.632812 -41.84375 18.078125 -42.269531 18.515625 -43.28125 C 19.835938 -46.050781 21.710938 -48.222656 24.140625 -49.796875 C 26.566406 -51.367188 29.101562 -52.15625 31.75 -52.15625 C 34.582031 -52.15625 37.164062 -51.507812 39.5 -50.21875 C 41.832031 -48.9375 43.660156 -47.003906 44.984375 -44.421875 C 46.179688 -41.578125 47.441406 -41.546875 48.765625 -44.328125 C 50.148438 -46.710938 52.054688 -48.613281 54.484375 -50.03125 C 56.910156 -51.445312 59.726562 -52.15625 62.9375 -52.15625 C 66.082031 -52.15625 68.976562 -51.242188 71.625 -49.421875 C 74.269531 -47.597656 76.425781 -44.90625 78.09375 -41.34375 C 79.769531 -37.78125 80.703125 -33.414062 80.890625 -28.25 C 81.015625 -24.789062 81.171875 -20.851562 81.359375 -16.4375 C 81.546875 -12.03125 81.640625 -7.460938 81.640625 -2.734375 C 81.640625 -1.921875 81.4375 -1.289062 81.03125 -0.84375 C 80.625 -0.40625 80.101562 -0.125 79.46875 0 C 78.65625 0.125 77.820312 0.21875 76.96875 0.28125 C 76.113281 0.34375 75.4375 0.375 74.9375 0.375 C 74.3125 0.375 73.382812 0.359375 72.15625 0.328125 C 70.925781 0.296875 69.867188 0.1875 68.984375 0 C 68.359375 -0.125 67.804688 -0.40625 67.328125 -0.84375 C 66.859375 -1.289062 66.65625 -1.890625 66.71875 -2.640625 C 66.90625 -4.972656 67.046875 -7.570312 67.140625 -10.4375 C 67.234375 -13.300781 67.296875 -16.070312 67.328125 -18.75 C 67.359375 -21.4375 67.34375 -23.597656 67.28125 -25.234375 C 67.21875 -29.578125 66.335938 -32.992188 64.640625 -35.484375 C 62.941406 -37.972656 60.703125 -39.21875 57.921875 -39.21875 C 55.472656 -39.21875 53.347656 -37.925781 51.546875 -35.34375 C 49.753906 -32.757812 48.859375 -29.132812 48.859375 -24.46875 C 48.859375 -21.257812 48.90625 -17.71875 49 -13.84375 C 49.09375 -9.96875 49.265625 -6.265625 49.515625 -2.734375 C 49.640625 -1.921875 49.46875 -1.289062 49 -0.84375 C 48.53125 -0.40625 47.945312 -0.125 47.25 0 C 46.488281 0.125 45.664062 0.21875 44.78125 0.28125 C 43.90625 0.34375 43.1875 0.375 42.625 0.375 C 41.988281 0.375 41.054688 0.359375 39.828125 0.328125 C 38.597656 0.296875 37.515625 0.1875 36.578125 0 C 36.003906 -0.125 35.476562 -0.40625 35 -0.84375 C 34.53125 -1.289062 34.328125 -1.890625 34.390625 -2.640625 C 34.523438 -5.097656 34.640625 -7.679688 34.734375 -10.390625 C 34.828125 -13.097656 34.890625 -15.757812 34.921875 -18.375 C 34.953125 -20.988281 34.9375 -23.273438 34.875 -25.234375 C 34.8125 -29.578125 33.925781 -32.992188 32.21875 -35.484375 C 30.519531 -37.972656 28.285156 -39.21875 25.515625 -39.21875 C 22.992188 -39.21875 20.863281 -37.894531 19.125 -35.25 C 17.394531 -32.601562 16.46875 -28.945312 16.34375 -24.28125 C 16.21875 -20.757812 16.171875 -17.21875 16.203125 -13.65625 C 16.234375 -10.09375 16.34375 -6.421875 16.53125 -2.640625 C 16.59375 -1.890625 16.40625 -1.289062 15.96875 -0.84375 C 15.53125 -0.40625 15.023438 -0.125 14.453125 0 C 13.703125 0.125 12.804688 0.21875 11.765625 0.28125 C 10.722656 0.34375 9.953125 0.375 9.453125 0.375 Z M 9.453125 0.375 "/></g></g></g><g fill="#000000" fill-opacity="1"><g transform="translate(100.552283, 193.220313)"><g><path d="M 28.15625 0.75 C 23.113281 0.75 18.59375 -0.207031 14.59375 -2.125 C 10.59375 -4.050781 7.441406 -6.945312 5.140625 -10.8125 C 2.847656 -14.6875 1.703125 -19.523438 1.703125 -25.328125 C 1.703125 -30.992188 2.832031 -35.828125 5.09375 -39.828125 C 7.363281 -43.828125 10.5 -46.878906 14.5 -48.984375 C 18.5 -51.097656 23.050781 -52.15625 28.15625 -52.15625 C 33.257812 -52.15625 37.78125 -51.097656 41.71875 -48.984375 C 45.65625 -46.878906 48.757812 -43.828125 51.03125 -39.828125 C 53.300781 -35.828125 54.4375 -30.992188 54.4375 -25.328125 C 54.4375 -19.523438 53.300781 -14.6875 51.03125 -10.8125 C 48.757812 -6.945312 45.640625 -4.050781 41.671875 -2.125 C 37.703125 -0.207031 33.195312 0.75 28.15625 0.75 Z M 28.15625 -10.390625 C 31.875 -10.390625 34.945312 -11.710938 37.375 -14.359375 C 39.800781 -17.003906 41.015625 -20.816406 41.015625 -25.796875 C 41.015625 -30.523438 39.816406 -34.242188 37.421875 -36.953125 C 35.023438 -39.660156 31.9375 -41.015625 28.15625 -41.015625 C 24.3125 -41.015625 21.207031 -39.660156 18.84375 -36.953125 C 16.488281 -34.242188 15.3125 -30.523438 15.3125 -25.796875 C 15.3125 -20.816406 16.519531 -17.003906 18.9375 -14.359375 C 21.363281 -11.710938 24.4375 -10.390625 28.15625 -10.390625 Z M 28.15625 -10.390625 "/></g></g></g><g fill="#000000" fill-opacity="1"><g transform="translate(156.685252, 193.220313)"><g><path d="M 28.828125 0.375 C 27.941406 0.375 26.835938 0.359375 25.515625 0.328125 C 24.191406 0.296875 23.023438 0.1875 22.015625 0 C 21.515625 -0.125 21.007812 -0.359375 20.5 -0.703125 C 20 -1.054688 19.625 -1.421875 19.375 -1.796875 C 16.976562 -5.953125 14.660156 -10.566406 12.421875 -15.640625 C 10.191406 -20.710938 8.160156 -26.050781 6.328125 -31.65625 C 4.503906 -37.257812 2.898438 -42.867188 1.515625 -48.484375 C 1.328125 -49.171875 1.40625 -49.8125 1.75 -50.40625 C 2.09375 -51.007812 2.675781 -51.34375 3.5 -51.40625 C 4.1875 -51.53125 5.082031 -51.625 6.1875 -51.6875 C 7.289062 -51.75 8.15625 -51.78125 8.78125 -51.78125 C 9.289062 -51.78125 10.269531 -51.75 11.71875 -51.6875 C 13.164062 -51.625 14.238281 -51.53125 14.9375 -51.40625 C 16.125 -51.21875 16.847656 -50.492188 17.109375 -49.234375 C 17.609375 -42.367188 18.863281 -35.988281 20.875 -30.09375 C 22.894531 -24.207031 24.882812 -19.21875 26.84375 -15.125 C 27.46875 -13.925781 28.109375 -13.328125 28.765625 -13.328125 C 29.429688 -13.328125 30.082031 -13.925781 30.71875 -15.125 C 32.039062 -17.894531 33.378906 -21.070312 34.734375 -24.65625 C 36.085938 -28.25 37.28125 -32.125 38.3125 -36.28125 C 39.351562 -40.445312 40.03125 -44.765625 40.34375 -49.234375 C 40.601562 -50.492188 41.332031 -51.21875 42.53125 -51.40625 C 43.28125 -51.53125 44.347656 -51.625 45.734375 -51.6875 C 47.117188 -51.75 48.097656 -51.78125 48.671875 -51.78125 C 49.421875 -51.78125 50.332031 -51.75 51.40625 -51.6875 C 52.476562 -51.625 53.328125 -51.53125 53.953125 -51.40625 C 54.835938 -51.34375 55.4375 -51.007812 55.75 -50.40625 C 56.070312 -49.8125 56.132812 -49.171875 55.9375 -48.484375 C 53.613281 -39.910156 50.9375 -31.5625 47.90625 -23.4375 C 44.882812 -15.3125 41.578125 -8.097656 37.984375 -1.796875 C 37.734375 -1.421875 37.367188 -1.054688 36.890625 -0.703125 C 36.421875 -0.359375 35.9375 -0.125 35.4375 0 C 34.425781 0.1875 33.257812 0.296875 31.9375 0.328125 C 30.613281 0.359375 29.578125 0.375 28.828125 0.375 Z M 28.828125 0.375 "/></g></g></g><g fill="#000000" fill-opacity="1"><g transform="translate(214.141227, 193.220313)"><g><path d="M 10.203125 -56.328125 C 7.867188 -56.328125 5.960938 -56.957031 4.484375 -58.21875 C 3.003906 -59.476562 2.265625 -61.082031 2.265625 -63.03125 C 2.265625 -65.050781 3.003906 -66.6875 4.484375 -67.9375 C 5.960938 -69.195312 7.867188 -69.828125 10.203125 -69.828125 C 12.597656 -69.828125 14.535156 -69.195312 16.015625 -67.9375 C 17.492188 -66.6875 18.234375 -65.050781 18.234375 -63.03125 C 18.234375 -61.082031 17.492188 -59.476562 16.015625 -58.21875 C 14.535156 -56.957031 12.597656 -56.328125 10.203125 -56.328125 Z M 10.390625 0.375 C 9.890625 0.375 9.070312 0.359375 7.9375 0.328125 C 6.800781 0.296875 5.828125 0.1875 5.015625 0 C 4.441406 -0.125 3.945312 -0.421875 3.53125 -0.890625 C 3.125 -1.367188 2.921875 -1.984375 2.921875 -2.734375 C 2.921875 -8.222656 2.9375 -13.0625 2.96875 -17.25 C 3.007812 -21.4375 3.0625 -25.273438 3.125 -28.765625 C 3.1875 -32.265625 3.28125 -35.632812 3.40625 -38.875 C 3.53125 -42.125 3.71875 -45.515625 3.96875 -49.046875 C 4.03125 -49.867188 4.21875 -50.453125 4.53125 -50.796875 C 4.851562 -51.140625 5.328125 -51.34375 5.953125 -51.40625 C 6.648438 -51.53125 7.453125 -51.625 8.359375 -51.6875 C 9.273438 -51.75 9.984375 -51.78125 10.484375 -51.78125 C 10.929688 -51.78125 11.5625 -51.75 12.375 -51.6875 C 13.195312 -51.625 13.921875 -51.53125 14.546875 -51.40625 C 15.179688 -51.28125 15.65625 -51.0625 15.96875 -50.75 C 16.28125 -50.4375 16.46875 -49.867188 16.53125 -49.046875 C 16.789062 -45.515625 16.984375 -42.125 17.109375 -38.875 C 17.234375 -35.632812 17.328125 -32.265625 17.390625 -28.765625 C 17.453125 -25.273438 17.5 -21.421875 17.53125 -17.203125 C 17.5625 -12.984375 17.578125 -8.128906 17.578125 -2.640625 C 17.578125 -1.890625 17.367188 -1.289062 16.953125 -0.84375 C 16.546875 -0.40625 16.0625 -0.125 15.5 0 C 14.675781 0.125 13.742188 0.21875 12.703125 0.28125 C 11.671875 0.34375 10.898438 0.375 10.390625 0.375 Z M 10.390625 0.375 "/></g></g></g><g fill="#000000" fill-opacity="1"><g transform="translate(234.64771, 193.220313)"><g><path d="M 29.203125 0.75 C 23.660156 0.75 18.820312 -0.300781 14.6875 -2.40625 C 10.5625 -4.519531 7.363281 -7.59375 5.09375 -11.625 C 2.832031 -15.65625 1.703125 -20.535156 1.703125 -26.265625 C 1.703125 -31.816406 2.785156 -36.507812 4.953125 -40.34375 C 7.128906 -44.1875 10.109375 -47.113281 13.890625 -49.125 C 17.671875 -51.144531 21.957031 -52.15625 26.75 -52.15625 C 33.425781 -52.15625 38.828125 -50.660156 42.953125 -47.671875 C 47.078125 -44.679688 49.140625 -40.289062 49.140625 -34.5 C 49.140625 -31.40625 48.300781 -28.675781 46.625 -26.3125 C 44.957031 -23.957031 42.753906 -22.132812 40.015625 -20.84375 C 37.273438 -19.550781 34.332031 -18.90625 31.1875 -18.90625 C 28.601562 -18.90625 26.097656 -19.125 23.671875 -19.5625 C 21.242188 -20 19.117188 -20.722656 17.296875 -21.734375 C 16.347656 -22.367188 15.648438 -22.414062 15.203125 -21.875 C 14.765625 -21.34375 14.863281 -20.632812 15.5 -19.75 C 16.25 -17.988281 17.457031 -16.414062 19.125 -15.03125 C 20.800781 -13.644531 22.707031 -12.554688 24.84375 -11.765625 C 26.988281 -10.972656 29.132812 -10.578125 31.28125 -10.578125 C 33.738281 -10.578125 36.351562 -11.113281 39.125 -12.1875 C 41.894531 -13.257812 44.160156 -14.613281 45.921875 -16.25 C 46.617188 -17.132812 47.359375 -17.429688 48.140625 -17.140625 C 48.929688 -16.859375 49.359375 -16.09375 49.421875 -14.84375 C 49.546875 -13.445312 49.625 -12.023438 49.65625 -10.578125 C 49.6875 -9.128906 49.734375 -7.710938 49.796875 -6.328125 C 49.796875 -5.128906 49.390625 -4.28125 48.578125 -3.78125 C 46.242188 -2.207031 43.265625 -1.054688 39.640625 -0.328125 C 36.015625 0.390625 32.535156 0.75 29.203125 0.75 Z M 27.5 -26.171875 C 30.207031 -26.171875 32.347656 -26.847656 33.921875 -28.203125 C 35.492188 -29.554688 36.28125 -31.398438 36.28125 -33.734375 C 36.28125 -36.191406 35.554688 -38.113281 34.109375 -39.5 C 32.660156 -40.882812 30.269531 -41.578125 26.9375 -41.578125 C 25.039062 -41.578125 23.175781 -41.179688 21.34375 -40.390625 C 19.519531 -39.609375 18.023438 -38.492188 16.859375 -37.046875 C 15.703125 -35.597656 15.125 -33.832031 15.125 -31.75 C 15.125 -30.488281 15.816406 -29.429688 17.203125 -28.578125 C 18.585938 -27.734375 20.238281 -27.117188 22.15625 -26.734375 C 24.082031 -26.359375 25.863281 -26.171875 27.5 -26.171875 Z M 27.5 -26.171875 "/></g></g></g><g fill="#000000" fill-opacity="1"><g transform="translate(286.244676, 193.220313)"><g><path d="M 8.984375 -50.078125 L 7.28125 -52.15625 C 6.269531 -53.226562 6.394531 -54.269531 7.65625 -55.28125 C 8.15625 -55.65625 8.578125 -56.078125 8.921875 -56.546875 C 9.273438 -57.023438 9.578125 -57.453125 9.828125 -57.828125 C 10.078125 -58.148438 10.15625 -58.46875 10.0625 -58.78125 C 9.96875 -59.09375 9.671875 -59.25 9.171875 -59.25 C 7.210938 -59.0625 5.460938 -59.769531 3.921875 -61.375 C 2.378906 -62.976562 1.609375 -65.101562 1.609375 -67.75 C 1.609375 -70.59375 2.488281 -72.753906 4.25 -74.234375 C 6.019531 -75.710938 8.257812 -76.453125 10.96875 -76.453125 C 13.738281 -76.453125 15.972656 -75.488281 17.671875 -73.5625 C 19.367188 -71.644531 20.21875 -69.113281 20.21875 -65.96875 C 20.21875 -62.1875 19.414062 -58.875 17.8125 -56.03125 C 16.207031 -53.195312 14.300781 -50.992188 12.09375 -49.421875 C 11.53125 -49.046875 10.960938 -48.9375 10.390625 -49.09375 C 9.828125 -49.25 9.359375 -49.578125 8.984375 -50.078125 Z M 8.984375 -50.078125 "/></g></g></g><g fill="#000000" fill-opacity="1"><g transform="translate(308.074166, 193.220313)"><g><path d="M 25.234375 0.65625 C 23.023438 0.65625 20.628906 0.5 18.046875 0.1875 C 15.460938 -0.125 12.941406 -0.53125 10.484375 -1.03125 C 8.023438 -1.539062 5.882812 -2.078125 4.0625 -2.640625 C 3.375 -2.960938 2.804688 -3.390625 2.359375 -3.921875 C 1.921875 -4.453125 1.734375 -5.128906 1.796875 -5.953125 C 1.921875 -7.523438 2.015625 -9.066406 2.078125 -10.578125 C 2.140625 -12.097656 2.203125 -13.644531 2.265625 -15.21875 C 2.390625 -16.601562 2.878906 -17.40625 3.734375 -17.625 C 4.585938 -17.84375 5.328125 -17.578125 5.953125 -16.828125 C 7.398438 -15.628906 9.160156 -14.539062 11.234375 -13.5625 C 13.316406 -12.582031 15.523438 -11.820312 17.859375 -11.28125 C 20.191406 -10.75 22.394531 -10.484375 24.46875 -10.484375 C 27.6875 -10.484375 30.128906 -10.878906 31.796875 -11.671875 C 33.460938 -12.460938 34.296875 -13.769531 34.296875 -15.59375 C 34.296875 -16.976562 33.539062 -18.109375 32.03125 -18.984375 C 30.519531 -19.867188 28.582031 -20.65625 26.21875 -21.34375 C 23.863281 -22.039062 21.359375 -22.769531 18.703125 -23.53125 C 16.054688 -24.289062 13.550781 -25.265625 11.1875 -26.453125 C 8.832031 -27.648438 6.898438 -29.160156 5.390625 -30.984375 C 3.878906 -32.816406 3.125 -35.148438 3.125 -37.984375 C 3.125 -41.078125 4.113281 -43.660156 6.09375 -45.734375 C 8.082031 -47.816406 10.804688 -49.390625 14.265625 -50.453125 C 17.734375 -51.523438 21.671875 -52.0625 26.078125 -52.0625 C 28.410156 -52.0625 31.117188 -51.890625 34.203125 -51.546875 C 37.296875 -51.203125 39.941406 -50.679688 42.140625 -49.984375 C 43.785156 -49.359375 44.609375 -48.289062 44.609375 -46.78125 C 44.671875 -45.519531 44.703125 -44.242188 44.703125 -42.953125 C 44.703125 -41.660156 44.703125 -40.382812 44.703125 -39.125 C 44.703125 -37.550781 44.289062 -36.664062 43.46875 -36.46875 C 42.644531 -36.28125 41.890625 -36.503906 41.203125 -37.140625 C 39.441406 -38.398438 37.269531 -39.4375 34.6875 -40.25 C 32.101562 -41.070312 29.519531 -41.484375 26.9375 -41.484375 C 24.226562 -41.484375 21.925781 -41.054688 20.03125 -40.203125 C 18.144531 -39.359375 17.203125 -38.210938 17.203125 -36.765625 C 17.203125 -35.503906 17.957031 -34.460938 19.46875 -33.640625 C 20.976562 -32.816406 22.914062 -32.070312 25.28125 -31.40625 C 27.644531 -30.75 30.148438 -30.007812 32.796875 -29.1875 C 35.441406 -28.375 37.941406 -27.351562 40.296875 -26.125 C 42.660156 -24.894531 44.597656 -23.351562 46.109375 -21.5 C 47.628906 -19.644531 48.390625 -17.265625 48.390625 -14.359375 C 48.390625 -9.828125 46.421875 -6.191406 42.484375 -3.453125 C 38.546875 -0.710938 32.796875 0.65625 25.234375 0.65625 Z M 25.234375 0.65625 "/></g></g></g><g clip-path="url(#a2f934b156)"><path fill="#000000" d="M 60.414062 200.078125 C 60.277344 200.265625 60.257812 200.46875 60.347656 200.683594 C 59.820312 201.285156 58.617188 200.820312 58.410156 201.925781 C 56.644531 203.6875 57.3125 205.484375 58.363281 207.261719 C 61.316406 212.238281 65.019531 216.632812 68.996094 220.800781 C 83.242188 235.71875 99.949219 246.972656 118.824219 255.382812 C 151.773438 270.066406 185.78125 272.097656 220.640625 264.925781 C 236.804688 261.601562 252.082031 255.515625 267.078125 248.722656 C 275.894531 244.730469 284.4375 240.21875 293.097656 235.914062 C 293.339844 235.621094 293.574219 235.332031 293.816406 235.039062 C 294.242188 235.019531 294.71875 234.875 295.070312 235.03125 C 295.070312 235.03125 295.070312 235.03125 295.078125 235.039062 C 295.351562 235.164062 295.167969 235.554688 294.855469 235.710938 C 293.175781 239.113281 290.832031 242.046875 288.335938 244.855469 C 286.625 246.78125 285.109375 248.773438 284.214844 251.203125 C 280.5 255.3125 280.375 259.714844 283.679688 263.546875 C 293.992188 259.570312 300.28125 251.398438 305.996094 242.5625 C 308.121094 239.277344 310.464844 236.148438 312.757812 232.980469 C 318.261719 225.398438 317.035156 226.183594 313.992188 219.199219 C 313.3125 217.632812 312.28125 216.253906 311.117188 214.988281 C 310.6875 214.523438 310.25 214.132812 309.582031 214.132812 C 308.707031 212.394531 307.074219 212.375 305.480469 212.433594 C 300.746094 212.609375 296.023438 212.839844 291.289062 213.054688 C 290.296875 212.511719 289.269531 212.675781 288.238281 212.890625 C 287.265625 212.304688 286.226562 212.492188 285.195312 212.628906 C 284.574219 212.101562 283.796875 212.296875 283.085938 212.199219 C 273.472656 210.847656 264.152344 208.4375 255.269531 204.445312 C 254.601562 204.140625 253.910156 203.898438 253.230469 203.628906 C 252.421875 203.296875 251.507812 202.917969 250.867188 203.675781 C 250.382812 204.25 250.519531 205.289062 250.945312 205.765625 C 252.832031 207.882812 253.113281 210.808594 254.753906 213.015625 C 255.484375 213.996094 256.554688 214.601562 257.652344 215.191406 C 266.097656 219.808594 275.125 222.804688 284.484375 224.882812 C 285.320312 225.066406 286.207031 225.125 286.972656 225.476562 C 287.867188 225.882812 287.617188 226.640625 287.167969 227.3125 C 286.195312 227.195312 285.507812 227.585938 285.058594 228.429688 C 284.15625 228.5 283.28125 228.632812 282.824219 229.578125 C 282.601562 229.46875 282.453125 229.539062 282.386719 229.773438 C 281.523438 229.808594 280.726562 229.984375 280.257812 230.832031 C 279.675781 230.988281 279.0625 231.0625 278.519531 231.316406 C 272.542969 234.058594 266.613281 236.894531 260.605469 239.570312 C 255.152344 242 249.632812 244.253906 244.140625 246.574219 C 242.617188 247.011719 241.082031 247.390625 239.585938 247.886719 C 224.984375 252.621094 210.039062 255.527344 194.691406 256.1875 C 189.210938 256.421875 183.730469 256.488281 178.246094 256.625 C 177.207031 256.042969 176.136719 256.277344 175.058594 256.488281 C 174.078125 255.90625 173.058594 256.109375 172.027344 256.304688 C 171.132812 255.683594 170.160156 255.945312 169.199219 256.042969 C 168.644531 255.574219 168.03125 255.605469 167.402344 255.828125 C 167.1875 255.671875 166.972656 255.664062 166.75 255.808594 C 166.128906 255.304688 165.359375 255.476562 164.660156 255.363281 C 161.199219 254.769531 157.652344 254.796875 154.261719 253.777344 C 153.960938 254.058594 152.957031 254.207031 154.183594 254.71875 C 155 255.070312 155.046875 255.3125 154.824219 255.515625 C 154.628906 255.691406 154.230469 255.839844 153.941406 255.984375 C 143.074219 253.769531 132.605469 250.269531 122.363281 246.082031 C 121.449219 245.605469 120.527344 245.128906 119.613281 244.652344 C 114.148438 241.804688 108.679688 238.957031 103.214844 236.117188 C 103.109375 235.886719 102.953125 235.730469 102.757812 235.640625 C 102.625 235.582031 102.476562 235.554688 102.3125 235.554688 C 102.136719 235.175781 101.835938 235 101.429688 235.011719 C 101.261719 234.621094 100.960938 234.445312 100.542969 234.464844 C 100.386719 234.066406 100.085938 233.890625 99.660156 233.910156 C 99.503906 233.511719 99.210938 233.320312 98.785156 233.347656 C 98.640625 232.941406 98.347656 232.753906 97.917969 232.785156 L 97.910156 232.773438 C 97.773438 232.375 97.480469 232.183594 97.0625 232.210938 L 97.042969 232.203125 C 96.78125 231.996094 96.5 231.804688 96.210938 231.628906 L 96.179688 231.609375 C 96.042969 231.210938 95.773438 231.015625 95.34375 231.035156 L 95.316406 231.015625 C 95.179688 230.617188 94.90625 230.421875 94.480469 230.441406 L 94.449219 230.421875 C 94.449219 230.421875 94.441406 230.414062 94.441406 230.414062 C 94.441406 230.414062 94.449219 230.421875 94.449219 230.421875 C 94.324219 230.015625 94.042969 229.820312 93.613281 229.839844 L 93.59375 229.828125 C 93.46875 229.421875 93.1875 229.226562 92.757812 229.246094 L 92.75 229.238281 C 92.613281 228.828125 92.332031 228.625 91.902344 228.632812 C 89.414062 226.621094 86.9375 224.609375 84.449219 222.597656 C 82.824219 221.957031 81.707031 220.644531 80.453125 219.527344 C 80.503906 219.332031 80.589844 219.179688 80.699219 219.042969 C 80.863281 218.828125 81.078125 218.683594 81.367188 218.59375 C 80.511719 217.652344 79.726562 216.640625 78.492188 216.144531 C 78.101562 216.027344 77.742188 215.863281 77.460938 215.550781 C 77.800781 215.746094 78.140625 215.953125 78.492188 216.144531 C 78.277344 215.785156 78.035156 215.476562 77.578125 215.542969 C 77.460938 214.910156 77.0625 214.53125 76.480469 214.300781 C 76.410156 213.890625 76.199219 213.636719 75.761719 213.617188 C 75.585938 213.230469 75.351562 212.929688 74.894531 212.878906 C 74.835938 212.675781 74.730469 212.519531 74.515625 212.433594 C 73.84375 211.363281 72.992188 210.488281 71.921875 209.820312 C 71.40625 209.089844 70.910156 208.339844 70.066406 207.941406 C 69.910156 207.359375 69.433594 207.046875 68.996094 206.707031 C 66.972656 203.832031 64.4375 201.34375 62.890625 197.933594 C 62.046875 198.941406 60.628906 198.769531 60.414062 200.078125 Z M 282.511719 230.492188 C 282.503906 230.492188 282.503906 230.492188 282.492188 230.492188 C 282.492188 230.5 282.503906 230.5 282.503906 230.5 C 282.492188 230.5 282.484375 230.492188 282.484375 230.492188 C 282.484375 230.492188 282.492188 230.492188 282.492188 230.492188 C 282.492188 230.480469 282.492188 230.472656 282.484375 230.460938 C 282.503906 230.472656 282.503906 230.480469 282.511719 230.492188 Z M 92.601562 231.609375 C 92.660156 231.667969 92.71875 231.726562 92.777344 231.785156 C 92.757812 231.773438 92.738281 231.765625 92.71875 231.753906 C 92.660156 231.714844 92.601562 231.675781 92.546875 231.628906 C 92.554688 231.628906 92.574219 231.617188 92.601562 231.609375 Z M 103.15625 236.117188 C 103.15625 236.128906 103.148438 236.128906 103.148438 236.136719 C 103.128906 236.15625 103.121094 236.1875 103.101562 236.207031 L 103.03125 236.273438 L 103.148438 236.128906 C 103.148438 236.117188 103.140625 236.117188 103.140625 236.109375 C 103.140625 236.117188 103.148438 236.117188 103.15625 236.117188 Z M 92.242188 231.746094 C 92.339844 231.707031 92.4375 231.667969 92.527344 231.636719 C 92.582031 231.675781 92.640625 231.714844 92.699219 231.753906 C 92.5625 231.6875 92.410156 231.675781 92.242188 231.746094 Z M 93.078125 232.035156 C 93.148438 232.085938 93.214844 232.132812 93.273438 232.183594 C 93.273438 232.191406 93.285156 232.191406 93.285156 232.203125 C 93.214844 232.144531 93.148438 232.085938 93.078125 232.035156 Z M 62.269531 206.464844 C 62.261719 206.464844 62.25 206.457031 62.242188 206.457031 C 62.242188 206.457031 62.230469 206.445312 62.230469 206.445312 C 62.230469 206.4375 62.222656 206.425781 62.222656 206.417969 C 62.242188 206.425781 62.25 206.445312 62.269531 206.464844 Z M 63.175781 207.738281 C 63.175781 207.757812 63.175781 207.777344 63.195312 207.789062 C 63.195312 207.769531 63.175781 207.75 63.175781 207.738281 Z M 76.828125 215.484375 C 76.761719 215.515625 76.691406 215.550781 76.625 215.609375 C 76.617188 215.5625 76.605469 215.515625 76.597656 215.464844 C 76.671875 215.476562 76.75 215.476562 76.828125 215.484375 Z M 75.089844 213.335938 C 74.984375 213.257812 74.90625 213.140625 74.855469 212.996094 C 74.855469 212.996094 74.855469 212.996094 74.867188 212.996094 C 74.925781 213.132812 74.992188 213.25 75.089844 213.335938 Z M 75.089844 213.335938 " fill-opacity="1" fill-rule="nonzero"/></g><path fill="#000000" d="M 96.152344 231.609375 C 96.433594 231.804688 96.714844 231.988281 96.988281 232.183594 C 96.851562 231.773438 96.570312 231.589844 96.152344 231.609375 Z M 96.152344 231.609375 " fill-opacity="1" fill-rule="nonzero"/></svg>